Coordinates
version=1
nRows=8
nColumns=36
inDegrees=yes

Units are S.I. units (second, meters, Newtons, ...)
If the header above contains a line with 'inDegrees', this indicates whether rotational values are in degrees (yes) or radians (no).

endheader
time	pelvis_tilt	pelvis_list	pelvis_rotation	pelvis_tx	pelvis_ty	pelvis_tz	hip_flexion_r	hip_adduction_r	hip_rotation_r	knee_angle_r	knee_angle_r_beta	ankle_angle_r	subtalar_angle_r	mtp_angle_r	hip_flexion_l	hip_adduction_l	hip_rotation_l	knee_angle_l	knee_angle_l_beta	ankle_angle_l	subtalar_angle_l	mtp_angle_l	lumbar_extension	lumbar_bending	lumbar_rotation	arm_flex_r	arm_add_r	arm_rot_r	elbow_flex_r	pro_sup_r	arm_flex_l	arm_add_l	arm_rot_l	elbow_flex_l	pro_sup_l
      3.74583330	      1.02211233	     -1.99902594	      5.71103288	      0.56348076	      0.83965528	      0.04688025	     21.66012002	     -5.00036314	     -2.95249040	     51.99970428	      0.90756605	     27.17084624	    -17.59753665	     -7.49999987	     25.62945020	    -13.10900403	      1.48726142	     53.19835659	      0.92848648	     24.90048638	     -6.34292871	     -7.49999987	     -6.33912041	     -0.44086480	     -3.99678748	     65.87430512	    -32.92136227	     45.94034029	    122.74333555	     88.61352363	     57.02927595	    -28.42569711	     36.88089325	    119.52651191	     78.39936466
      3.75000000	      1.00875446	     -2.07596932	      5.70652550	      0.56332376	      0.83983774	      0.04729663	     21.30882675	     -4.97155900	     -3.15539260	     51.33494901	      0.89596388	     26.83402045	    -17.54123148	     -7.49999987	     25.47949707	    -13.09313753	      1.50902281	     52.73588388	      0.92041481	     24.59242985	     -7.08823534	     -7.49999987	     -6.20559785	     -0.21979442	     -3.66455877	     65.53395519	    -33.13022108	     45.77726544	    122.58610675	     88.02164210	     56.13307995	    -27.68274493	     36.24240042	    119.57157030	     78.02046295
      3.75416670	      0.66814375	     -2.09312826	      5.72544998	      0.56359412	      0.84318130	      0.04717291	     21.00796835	     -4.96267904	     -3.36149399	     50.06139489	      0.87373617	     26.46598435	    -16.85396048	     -7.49999987	     25.20082020	    -12.97303520	      1.58165166	     51.57734316	      0.90019446	     24.39054580	     -6.95382626	     -7.49999987	     -5.75860422	     -0.11309260	     -3.30011511	     64.87863525	    -33.42222360	     45.61635397	    122.64848509	     86.91069079	     55.18122918	    -26.85998311	     35.51816645	    119.58533071	     77.44433478
      3.75833330	      0.45250727	     -2.22184399	      5.74050335	      0.56338128	      0.84896604	      0.04671564	     20.41801240	     -4.86015812	     -3.61876096	     48.36359957	      0.84410405	     25.83329473	    -16.77904349	     -7.49999987	     24.75555630	    -12.77264490	      1.81601039	     50.02643789	      0.87312605	     23.79270818	     -6.63270579	     -7.49999987	     -5.32686493	     -0.30803862	     -2.72183607	     63.30084357	    -33.91915090	     44.32799927	    122.93787009	     90.15218281	     54.42442593	    -25.24342739	     35.04806490	    118.74927658	     80.53992610
      3.76250000	      0.32391409	     -2.14746991	      5.72090095	      0.56330601	      0.85196085	      0.04654172	     19.78928579	     -4.79799168	     -3.61633373	     46.86018345	      0.81786449	     25.04399167	    -17.12441575	     -7.49999987	     24.02713877	    -12.51720742	      1.85987831	     48.48723163	      0.84626184	     23.07530581	     -6.49985268	     -7.49999987	     -5.01039974	     -0.57150722	     -2.59891939	     62.83188858	    -33.85234906	     44.08871675	    122.92659042	     88.74052351	     53.18091277	    -24.46347345	     34.15239528	    119.20605951	     79.62360512
      3.76666670	     -0.08901992	     -2.12355768	      5.62906589	      0.56309206	      0.85225279	      0.04683087	     19.79766360	     -4.50536388	     -2.99964284	     45.71367251	      0.79785410	     24.45808323	    -17.67430614	     -7.49999987	     23.70848519	    -12.32670305	      1.87392078	     47.09204989	      0.82191132	     22.67481304	     -6.33761294	     -7.49999987	     -4.35326053	     -0.74770712	     -2.44575245	     62.04907501	    -33.77881125	     43.34707255	    123.01106738	     88.60783424	     51.32415768	    -23.75206328	     32.29745757	    120.15853458	     79.59532397
      3.77083330	     -0.45014169	     -2.07923102	      5.56781377	      0.56305965	      0.85553334	      0.04619884	     19.86119514	     -4.41163325	     -2.61956508	     44.84777401	      0.78274132	     23.85026638	    -17.81286846	     -7.49999987	     23.27355064	    -12.18753303	      1.79172498	     45.63732639	      0.79652161	     22.10128269	     -6.21326965	     -7.49999987	     -3.79800967	     -0.67040491	     -3.29499956	     62.64783113	    -32.32065574	     43.82821611	    122.01489464	     89.50795190	     48.73075901	    -24.19191437	     29.46640783	    122.24854141	     80.42471802
      3.77500000	     -0.78309842	     -2.07202609	      5.68401222	      0.56285513	      0.85875315	      0.04656494	     19.60294780	     -4.20039362	     -2.36734347	     43.85263685	      0.76537290	     23.71302494	    -17.74630364	     -7.49999987	     23.09532521	    -12.12501086	      1.77624736	     44.61376669	      0.77865712	     21.36400814	     -6.63940426	     -7.49999987	     -3.44285505	     -0.77291500	     -3.33267983	     62.18546854	    -32.24359891	     43.44166390	    122.28055565	     88.36565117	     47.92644108	    -23.79396909	     29.06659367	    122.72084811	     79.70601382
